<svg width="20" height="38" viewBox="0 0 20 38" fill="none" xmlns="http://www.w3.org/2000/svg">
<path d="M18.5916 10.3036C18.5916 5.71764 14.8774 2 10.2958 2C5.71415 2 2 5.71764 2 10.3036V19.4107C2 23.9966 5.71415 27.7143 10.2958 27.7143C14.8774 27.7143 18.5916 23.9966 18.5916 19.4107V10.3036Z" stroke="white" stroke-width="2.67857"/>
<path d="M11.3662 7.35713C11.3662 6.7654 10.8869 6.28571 10.2958 6.28571C9.70459 6.28571 9.22534 6.7654 9.22534 7.35713V10.5714C9.22534 11.1632 9.70459 11.6428 10.2958 11.6428C10.8869 11.6428 11.3662 11.1632 11.3662 10.5714V7.35713Z" fill="#929292"/>
<path d="M13.4991 34.5407C13.9171 34.1223 13.9171 33.4439 13.4991 33.0255C13.0811 32.607 12.4033 32.607 11.9853 33.0255L9.71457 35.2983C9.29654 35.7167 9.29654 36.3951 9.71457 36.8135C10.1326 37.232 10.8104 37.232 11.2284 36.8135L13.4991 34.5407Z" fill="#929292"/>
<path d="M7.30633 34.5407C6.8883 34.1223 6.8883 33.4439 7.30633 33.0255C7.72435 32.607 8.40211 32.607 8.82014 33.0255L11.0909 35.2983C11.5089 35.7167 11.5089 36.3951 11.0909 36.8135C10.6728 37.232 9.99507 37.232 9.57704 36.8135L7.30633 34.5407Z" fill="#929292"/>
</svg>
